<?xml version="1.0" encoding="utf-8"?>
<!-- Generator: Adobe Illustrator 23.0.5, SVG Export Plug-In . SVG Version: 6.00 Build 0)  -->
<svg version="1.1" id="Capa_1" xmlns="http://www.w3.org/2000/svg" xmlns:xlink="http://www.w3.org/1999/xlink" x="0px" y="0px"
	 viewBox="0 0 595.2755737 841.8897705" enable-background="new 0 0 595.2755737 841.8897705" xml:space="preserve">
<g>
	<g>
		<defs>
			<rect id="SVGID_1_" width="595.2755737" height="474"/>
		</defs>
		<clipPath id="SVGID_2_">
			<use xlink:href="#SVGID_1_"  overflow="visible"/>
		</clipPath>
		<rect y="0.0114115" clip-path="url(#SVGID_2_)" fill="#4F6D29" width="595.2755737" height="473.9784851"/>
		<g clip-path="url(#SVGID_2_)">
			<defs>
				<rect id="SVGID_3_" width="595.2755737" height="474"/>
			</defs>
			<clipPath id="SVGID_4_">
				<use xlink:href="#SVGID_3_"  overflow="visible"/>
			</clipPath>
			<path clip-path="url(#SVGID_4_)" fill="#FFFFFF" d="M293.1480103,211.8406067
				c-0.0756531,0-0.1519165-0.0048218-0.2288208-0.0153503c-1.3257141-0.1764221-2.2992554-1.8411407-2.1743164-3.7178345
				c0.0635681-0.9563446,0.0958252-1.9302368,0.0958252-2.89534c0-16.7874908-9.6484375-30.4457245-21.5074158-30.4457245
				c-0.6898499,0-1.3846436,0.0465393-2.0654907,0.1382599c-1.326355,0.1777344-2.502655-1.1977386-2.6288147-3.0739899
				c-0.1262207-1.876236,0.8460999-3.5422668,2.1714783-3.7208862c0.8324585-0.112381,1.6810608-0.1689758,2.5228271-0.1689758
				c14.5181885,0,26.3294373,16.7199097,26.3294373,37.2713165c0,1.177536-0.0393677,2.3673553-0.1171875,3.5352478
				C295.4280396,210.5151825,294.3776245,211.8406067,293.1480103,211.8406067"/>
			<path clip-path="url(#SVGID_4_)" fill="#FFFFFF" d="M284.7598877,211.7186432
				c-0.1116028,0-0.2244873-0.0109558-0.3382263-0.033783c-1.318634-0.2620087-2.2375793-1.9877167-2.0524902-3.8543091
				c0.0855713-0.8602295,0.1286621-1.7415161,0.1286621-2.6184082c0-10.2757263-5.9056396-18.6356659-13.1645508-18.6356659
				c-0.6458435,0-1.2944336,0.0666962-1.9278564,0.197937c-1.3173218,0.2747345-2.5419922-1.0173492-2.7348328-2.8821869
				c-0.1931458-1.8652802,0.7183533-3.5984497,2.0360107-3.8718872c0.8637695-0.1790619,1.7476807-0.2699127,2.6266785-0.2699127
				c9.9178467,0,17.9866028,11.4220886,17.9866028,25.4617157c0,1.1933289-0.0588989,2.393692-0.1754761,3.5677032
				C286.9751282,210.4853668,285.942688,211.7186432,284.7598877,211.7186432"/>
			<path clip-path="url(#SVGID_4_)" fill="#FFFFFF" d="M276.4244995,211.7514648
				c-0.2375183,0-0.4784241-0.0500183-0.7171326-0.1549225c-1.2711792-0.5600128-1.9814758-2.4731445-1.5858459-4.2730255
				c0.1494141-0.6789551,0.2250671-1.3895111,0.2250671-2.1110535c0-3.9135742-2.2490234-7.0968323-5.0133057-7.0968323
				c-0.5239868,0-1.0395813,0.1128082-1.5319214,0.3361816c-1.2677612,0.5754089-2.6253967-0.4142914-3.0315552-2.2093658
				c-0.4058533-1.7954865,0.2929688-3.716507,1.5610352-4.2914581c0.9685669-0.4388885,1.9786682-0.661377,3.0024414-0.661377
				c5.4231873,0,9.8350525,6.2458038,9.8350525,13.9228516c0,1.409729-0.1488037,2.8027649-0.4424438,4.1387177
				C278.4043884,210.8135681,277.45224,211.7514648,276.4244995,211.7514648"/>
			<path clip-path="url(#SVGID_4_)" fill="#FFFFFF" d="M270.6343689,207.4876099
				c0,2.3634338-1.3536377,4.2796326-3.0232239,4.2796326c-1.6698608,0-3.0234985-1.9161987-3.0234985-4.2796326
				c0-2.3638458,1.3536377-4.2795868,3.0234985-4.2795868C269.2807312,203.2080231,270.6343689,205.123764,270.6343689,207.4876099"
				/>
			<path clip-path="url(#SVGID_4_)" fill="#A09A47" d="M302.0858459,211.8406067
				c0.0756226,0,0.151886-0.0048218,0.2287903-0.0153503c1.3257141-0.1764221,2.2992554-1.8411407,2.1743164-3.7178345
				c-0.0635681-0.9563446-0.0958252-1.9302368-0.0958252-2.89534c0-16.7874908,9.6484375-30.4457245,21.5074158-30.4457245
				c0.6898804,0,1.3846436,0.0465393,2.0658264,0.1382599c1.3260193,0.1777344,2.5022888-1.1977386,2.6285095-3.0739899
				c0.1261902-1.876236-0.8460999-3.5422668-2.1715088-3.7208862c-0.832489-0.112381-1.6810303-0.1689758-2.5228271-0.1689758
				c-14.5181885,0-26.3294373,16.7199097-26.3294373,37.2713165c0,1.177536,0.0393677,2.3673553,0.1171875,3.5352478
				C299.8057861,210.5151825,300.8562012,211.8406067,302.0858459,211.8406067"/>
			<path clip-path="url(#SVGID_4_)" fill="#A09A47" d="M310.473938,211.7186432c0.1116028,0,0.2244568-0.0109558,0.3382263-0.033783
				c1.3186035-0.2620087,2.2375488-1.9877167,2.0524597-3.8543091c-0.0855713-0.8602295-0.1286621-1.7415161-0.1286621-2.6184082
				c0-10.2757263,5.9056396-18.6356659,13.1645813-18.6356659c0.645813,0,1.2944031,0.0666962,1.9278259,0.197937
				c1.3173523,0.2747345,2.5419922-1.0173492,2.7348328-2.8821869c0.1931763-1.8652802-0.7183533-3.5984497-2.0360413-3.8718872
				c-0.863739-0.1790619-1.7476807-0.2699127-2.6266174-0.2699127c-9.9178467,0-17.9866333,11.4220886-17.9866333,25.4617157
				c0,1.1933289,0.0589294,2.393692,0.1754761,3.5677032C308.2586975,210.4853668,309.2911377,211.7186432,310.473938,211.7186432"
				/>
			<path clip-path="url(#SVGID_4_)" fill="#A09A47" d="M318.8093262,211.7514648
				c0.2374878,0,0.4783936-0.0500183,0.7171326-0.1549225c1.2711487-0.5600128,1.9814453-2.4731445,1.5858459-4.2730255
				c-0.1491699-0.6789551-0.2251282-1.3895111-0.2251282-2.1110535c0-3.9135742,2.249054-7.0968323,5.0133667-7.0968323
				c0.5239563,0,1.0395813,0.1128082,1.5319214,0.3361816c1.2677307,0.5754089,2.6253662-0.4142914,3.0315552-2.2093658
				c0.4058228-1.7954865-0.2929688-3.716507-1.5610657-4.2914581c-0.9685669-0.4388885-1.9786682-0.661377-3.0024109-0.661377
				c-5.4232178,0-9.8350525,6.2458038-9.8350525,13.9228516c0,1.409729,0.1488037,2.8027649,0.4424133,4.1387177
				C316.8294067,210.8135681,317.7815247,211.7514648,318.8093262,211.7514648"/>
			<path clip-path="url(#SVGID_4_)" fill="#A09A47" d="M324.5994873,207.4876099
				c0,2.3634338,1.3536072,4.2796326,3.0231934,4.2796326c1.6698608,0,3.0234985-1.9161987,3.0234985-4.2796326
				c0-2.3638458-1.3536377-4.2795868-3.0234985-4.2795868C325.9530945,203.2080231,324.5994873,205.123764,324.5994873,207.4876099"
				/>
			<polygon clip-path="url(#SVGID_4_)" fill="#FFFFFF" points="242.9828491,222.7463379 242.9828491,268.9802246 
				237.1506958,268.9802246 237.1506958,247.7788086 216.1545105,247.7788086 216.1545105,268.9802246 210.3223724,268.9802246 
				210.3223724,222.7463379 216.1545105,222.7463379 216.1545105,239.5224304 237.1506958,239.5224304 237.1506958,222.7463379 			
				"/>
			<path clip-path="url(#SVGID_4_)" fill="#FFFFFF" d="M309.0015869,260.7241211l2.9860229,8.2559204h-6.5322266
				l-2.9859924-8.2559204l-4.7312012-13.011734h-9.3126526v21.2676544h-5.8321533v-46.2338562h20.6225891
				c2.4260254,0,4.6189575,1.3868713,6.2054138,3.6326752c1.5864868,2.3116302,2.5662231,5.4158936,2.5662231,8.8506317
				c0,10.6338501-7.4564819,12.9015808-7.4564819,12.9015808L309.0015869,260.7241211z M303.2159729,239.4564209
				c0.420105,0,0.8395691-0.1320801,1.2131653-0.396286c1.0730591-0.6605377,1.7728271-2.1795349,1.7728271-3.8306427
				c0-1.5189819-0.559967-2.5758362-0.8864136-3.0384064c-0.373291-0.5284424-1.0730591-1.1889801-2.0995789-1.1889801h-14.7904358
				v8.5205994L303.2159729,239.4564209z"/>
			<path clip-path="url(#SVGID_4_)" fill="#FFFFFF" d="M349.3594971,222.6800995v23.1171722
				c0,12.7470703-7.3253174,23.1166992-16.3304443,23.1166992c-9.0047607,0-16.3297424-10.3696289-16.3297424-23.1166992
				v-23.1171722h5.8321533v23.1171722c0,8.1896515,4.7122803,14.8607788,10.4975891,14.8607788
				c5.7856445,0,10.498291-6.6711273,10.498291-14.8607788v-23.1171722H349.3594971z"/>
			<path clip-path="url(#SVGID_4_)" fill="#FFFFFF" d="M382.5786438,245.0706329
				c-0.1401672-0.1983643-0.23349-0.396286-0.3733215-0.5946808c-1.8661194-2.9058685-4.5724487-4.7553406-7.6052551-4.7553406
				h-11.7579346c-1.6326904,0-2.9859924-1.9153137-2.9859924-4.2269592v-0.2642059
				c0-2.311615,1.353302-4.2273865,2.9859924-4.2273865h21.5613708l0.0117798-8.3217773h-21.5731506
				c-4.8524475,0-8.771637,5.6142731-8.771637,12.4833221v0.2637787c0,2.6421204,0.5599365,5.0858459,1.5396729,7.0674286
				c0.3267517,0.7263489,0.7000427,1.3868866,1.1198425,1.9811401c1.5864868,2.1799774,3.7325745,3.5005798,6.1121216,3.5005798
				h11.7579346c2.4728699,0,4.5259399,2.8400421,4.5259399,6.3410492c0,3.5001373-2.0530701,6.3406525-4.5259399,6.3406525
				h-19.5070801l-0.0039978,8.2554932h19.5110779c5.6923218,0,10.3115845-6.5385742,10.3115845-14.5961456
				C384.9116516,250.8165741,384.0249329,247.5802155,382.5786438,245.0706329"/>
			<path clip-path="url(#SVGID_4_)" fill="#FFFFFF" d="M267.8804016,223.8259888l-5.0238953,7.1117706
				c5.7645874,0.0351257,10.4526672,6.6908722,10.4526672,14.8594666c0,8.190094-4.7125854,14.8607635-10.49823,14.8607635
				s-10.4979248-6.6706696-10.4979248-14.8607635c0-8.1901093,4.7122803-14.8607788,10.4979248-14.8607788v-8.2563782
				c-9.004776,0-16.3300781,10.3696289-16.3300781,23.117157c0,12.7470856,7.3253021,23.1167145,16.3300781,23.1167145
				c9.0047913,0,16.3304138-10.3696289,16.3304138-23.1167145
				C279.1413574,235.5548859,274.4101563,226.8526001,267.8804016,223.8259888"/>
			<polygon clip-path="url(#SVGID_4_)" fill="#A09A47" points="309.0460205,305.7337646 304.592926,305.7337646 
				302.5572205,300.1054688 297.6908264,286.5977783 292.8244324,300.1054688 290.789032,305.7337646 286.3359375,305.7337646 
				288.3716736,300.1054688 297.6908264,274.2158508 307.0102844,300.1054688 			"/>
			<path clip-path="url(#SVGID_4_)" fill="#A09A47" d="M284.7199402,289.5844116
				c-0.0961304-0.1360474-0.1603088-0.2720947-0.2564087-0.4081726c-1.2807617-1.9947205-3.1382141-3.2640076-5.2198181-3.2640076
				h-8.070343c-1.1272888,0-2.0496521-1.3056946-2.0496521-2.9014893v-0.1812744
				c0-1.5957947,0.9223633-2.9014893,2.0496521-2.9014893h14.7991028l0.0080872-5.7121277h-14.8071899
				c-3.3251648,0-6.0209656,3.8161316-6.0209656,8.5232239v0.2264709c0,1.8134766,0.3844604,3.4909058,1.0569153,4.8505859
				c0.2241821,0.4990234,0.4805603,0.9523926,0.7686157,1.3601074c1.0888367,1.4961853,2.5621643,2.4029236,4.1954346,2.4029236
				h8.0250549c1.6026001,0,2.9924927,1.6923523,3.1385498,3.9517517c0.1671143,2.5828857-1.3027954,4.7522888-3.0932617,4.7522888
				l-57.6967773-0.1079407c-3.9706726,0-7.1895142-4.5565491-7.1895142-10.1773987
				c0-5.6213074,3.2188416-10.1778564,7.1895142-10.1778564l41.97995,0.1079712v-5.7121277l-41.9957733-0.1079712
				c-6.1905518,0-11.2088623,7.1038513-11.2088623,15.867157c0,8.7628479,5.0183105,15.8666992,11.2088623,15.8666992
				l57.5994415,0.1083984c3.6658936-0.0004272,6.8090515-3.8889771,7.1581726-9.0546875
				C286.4756775,294.1260376,285.8441467,291.5352783,284.7199402,289.5844116"/>
			<path clip-path="url(#SVGID_4_)" fill="#A09A47" d="M304.656311,274.2610474v5.6283264h9.128479v25.8896179h3.9756165
				v-25.8896179h55.9286194c3.9694824,0,7.1873474,4.5552063,7.1873474,10.1743164
				c0,5.6190796-3.217865,10.1743164-7.1873474,10.1743164h-52.7820129v5.7121277h52.8117981
				c6.1815796,0,11.1927185-7.09375,11.1927185-15.8447571c0-8.7505493-5.0111389-15.8443298-11.1927185-15.8443298H304.656311z"/>
		</g>
	</g>
</g>
</svg>
