<?xml version="1.0" encoding="utf-8"?>
<!-- Generator: Adobe Illustrator 23.0.5, SVG Export Plug-In . SVG Version: 6.00 Build 0)  -->
<svg version="1.1" id="Capa_1" xmlns="http://www.w3.org/2000/svg" xmlns:xlink="http://www.w3.org/1999/xlink" x="0px" y="0px"
	 viewBox="0 0 1417.3199463 1417.3199463" style="enable-background:new 0 0 1417.3199463 1417.3199463;" xml:space="preserve">
<g>
	<defs>
		<rect id="SVGID_1_" y="-0.0030518" width="1417.322998" height="1417.322998"/>
	</defs>
	<clipPath id="SVGID_2_">
		<use xlink:href="#SVGID_1_"  style="overflow:visible;"/>
	</clipPath>
	<path style="clip-path:url(#SVGID_2_);fill:#8FB73E;" d="M689.4589844,632.4551392
		c-0.3250122,0-0.6530151-0.0149536-0.9830322-0.0459595c-5.6970215-0.5369873-9.8800049-5.5889893-9.3430176-11.2860107
		c0.2730103-2.9030151,0.4120483-5.8590088,0.4120483-8.7880249c0-50.9589844-41.4590454-92.4159546-92.4170532-92.4159546
		c-2.9629517,0-5.9499512,0.1409912-8.8759766,0.4199829c-5.697998,0.5390015-10.7520142-3.6359863-11.2940063-9.3320313
		c-0.5429688-5.6959839,3.6350098-10.7529907,9.3309937-11.2949829c3.5759888-0.3399658,7.2230225-0.5120239,10.8389893-0.5120239
		c62.3840332,0,113.1360474,50.7520142,113.1360474,113.1350098c0,3.5740356-0.1690063,7.1849976-0.5030518,10.7310181
		C699.2549438,628.4321899,694.7419434,632.4551392,689.4589844,632.4551392"/>
	<path style="clip-path:url(#SVGID_2_);fill:#8FB73E;" d="M653.4155273,632.0845337
		c-0.4790039,0-0.9640503-0.032959-1.4530029-0.1019897c-5.6660156-0.7949829-9.6140137-6.0339966-8.8190308-11.6999512
		c0.3670044-2.6119995,0.5529785-5.2850342,0.5529785-7.9480591c0-31.190979-25.3769531-56.5669556-56.5689697-56.5669556
		c-2.7750244,0-5.5609741,0.2019653-8.2819824,0.5999756c-5.6610107,0.8339844-10.9230347-3.0880127-11.7520142-8.7479858
		c-0.8289795-5.6610107,3.0869751-10.9240112,8.7479858-11.7529907c3.7130127-0.5430298,7.5100098-0.8190308,11.2860107-0.8190308
		c42.617981,0,77.2880249,34.6710205,77.2880249,77.2869873c0,3.6230469-0.2530518,7.2660522-0.7530518,10.8290405
		C662.9354858,628.3405762,658.4984741,632.0845337,653.4155273,632.0845337"/>
	<path style="clip-path:url(#SVGID_2_);fill:#8FB73E;" d="M617.5991211,632.1846313
		c-1.0200195,0-2.0560303-0.1519775-3.0810547-0.4709473c-5.4629517-1.7000122-8.5139771-7.507019-6.8150024-12.9689941
		c0.6420288-2.0620117,0.967041-4.2180176,0.967041-6.4100342c0-11.8779907-9.6640015-21.5419922-21.5419922-21.5419922
		c-2.2510376,0-4.4660034,0.3439941-6.5820313,1.0219727c-5.447998,1.7460327-11.2810059-1.2579956-13.026001-6.7069702
		c-1.7440186-5.4490356,1.2590332-11.2810059,6.7070313-13.026001c4.1619873-1.3330078,8.5019531-2.0079956,12.901001-2.0079956
		c23.3039551,0,42.2619629,18.9580078,42.2619629,42.2609863c0,4.2810059-0.6400146,8.5079956-1.9019775,12.5640259
		C626.1071167,629.3376465,622.0150757,632.1836548,617.5991211,632.1846313"/>
	<path style="clip-path:url(#SVGID_2_);fill:#8FB73E;" d="M592.7191772,619.2417603
		c0,7.1750488-5.81604,12.9910278-12.9910278,12.9910278s-12.9910278-5.815979-12.9910278-12.9910278
		c0-7.1749878,5.81604-12.9909668,12.9910278-12.9909668S592.7191772,612.0667725,592.7191772,619.2417603"/>
	<path style="clip-path:url(#SVGID_2_);fill:#8FB73E;" d="M727.8643188,632.4551392
		c0.3249512,0,0.6529541-0.0149536,0.9829712-0.0459595c5.6970215-0.5369873,9.8790283-5.5889893,9.3430176-11.2860107
		c-0.2730103-2.9030151-0.4120483-5.8590088-0.4120483-8.7880249c0-50.9589844,41.4580078-92.4159546,92.4160156-92.4159546
		c2.9639893,0,5.9500122,0.1409912,8.8760376,0.4199829c5.697998,0.5390015,10.7529907-3.6359863,11.2949829-9.3320313
		c0.5419922-5.6959839-3.6359863-10.7529907-9.3309937-11.2949829c-3.5759888-0.3399658-7.2230225-0.5120239-10.8400269-0.5120239
		c-62.3829956,0-113.1359863,50.7520142-113.1359863,113.1350098c0,3.5740356,0.1699829,7.1849976,0.5029907,10.7310181
		C718.0672607,628.4321899,722.5802612,632.4551392,727.8643188,632.4551392"/>
	<path style="clip-path:url(#SVGID_2_);fill:#8FB73E;" d="M763.9072266,632.0845337
		c0.4789429,0,0.9639893-0.032959,1.4529419-0.1019897c5.6660156-0.7949829,9.6140137-6.0339966,8.8180542-11.6999512
		c-0.3660278-2.6119995-0.5510254-5.2850342-0.5510254-7.9480591c0-31.190979,25.3759766-56.5669556,56.5670166-56.5669556
		c2.776001,0,5.5629883,0.2019653,8.282959,0.5999756c5.6610107,0.8339844,10.9230347-3.0880127,11.7520142-8.7479858
		c0.8290405-5.6610107-3.0869751-10.9240112-8.7489624-11.7529907c-3.7120361-0.5430298-7.5090332-0.8190308-11.2860107-0.8190308
		c-42.6160278,0-77.2869873,34.6710205-77.2869873,77.2869873c0,3.6230469,0.2529907,7.2660522,0.7539673,10.8290405
		C754.387207,628.3405762,758.8242188,632.0845337,763.9072266,632.0845337"/>
	<path style="clip-path:url(#SVGID_2_);fill:#8FB73E;" d="M799.7235718,632.1846313
		c1.0199585,0,2.0569458-0.1519775,3.0809937-0.4709473c5.4629517-1.7000122,8.5139771-7.507019,6.8150024-12.9689941
		c-0.6420288-2.0620117-0.967041-4.2180176-0.967041-6.4100342c0-11.8779907,9.6640015-21.5419922,21.5419922-21.5419922
		c2.2520142,0,4.4660034,0.3439941,6.5820313,1.0219727c5.447998,1.7460327,11.2810059-1.2579956,13.026001-6.7069702
		c1.7440186-5.4490356-1.2590332-11.2810059-6.7070313-13.026001c-4.1619873-1.3330078-8.5019531-2.0079956-12.901001-2.0079956
		c-23.3029785,0-42.2619629,18.9580078-42.2619629,42.2609863c0,4.2810059,0.6409912,8.5079956,1.9019775,12.5640259
		C791.2155151,629.3376465,795.3075562,632.1836548,799.7235718,632.1846313"/>
	<path style="clip-path:url(#SVGID_2_);fill:#8FB73E;" d="M824.6035156,619.2417603
		c0,7.1750488,5.815979,12.9910278,12.9909668,12.9910278s12.9899902-5.815979,12.9899902-12.9910278
		c0-7.1749878-5.8150024-12.9909668-12.9899902-12.9909668S824.6035156,612.0667725,824.6035156,619.2417603"/>
	<polygon style="clip-path:url(#SVGID_2_);fill:#6D6C2B;" points="473.9028015,665.5586548 473.9028015,805.8977051 
		448.8417969,805.8977051 448.8417969,741.541687 358.6237793,741.541687 358.6237793,805.8977051 333.5628052,805.8977051 
		333.5628052,665.5586548 358.6237793,665.5586548 358.6237793,716.4816895 448.8417969,716.4816895 448.8417969,665.5586548 	"/>
	<path style="clip-path:url(#SVGID_2_);fill:#6D6C2B;" d="M757.5797119,780.8374023l12.8309937,25.0609741h-28.0679932
		l-12.8309937-25.0609741l-20.3290405-39.4949951H669.166687v64.5559692h-25.0609741V665.5584106h88.6140137
		c10.4249878,0,19.8479614,4.2099609,26.6639404,11.0269775c6.8170166,7.0159912,11.0270386,16.4390259,11.0270386,26.8640137
		c0,32.2789917-32.0390015,39.1630249-32.0390015,39.1630249L757.5797119,780.8374023z M732.7197266,716.2813721
		c1.8049927,0,3.6079712-0.4009399,5.2129517-1.2029419c4.6110229-2.0050049,7.618042-6.6160278,7.618042-11.6290283
		c0-4.6099854-2.4060059-7.8179932-3.8099976-9.2219849c-1.6030273-1.6040039-4.6100464-3.6090088-9.0209961-3.6090088H669.166687
		v25.8629761L732.7197266,716.2813721z"/>
	<path style="clip-path:url(#SVGID_2_);fill:#6D6C2B;" d="M930.9951172,665.3574219v70.1700439
		c0,38.6939697-31.4760132,70.1699829-70.1700439,70.1699829c-38.6929932,0-70.1690063-31.4760132-70.1690063-70.1699829
		v-70.1700439h25.0610352v70.1700439c0,24.8599854,20.2489624,45.1090088,45.1079712,45.1090088
		c24.8599854,0,45.1090088-20.2490234,45.1090088-45.1090088v-70.1700439H930.9951172z"/>
	<path style="clip-path:url(#SVGID_2_);fill:#6D6C2B;" d="M1073.7353516,733.3223267
		c-0.6020508-0.6019897-1.0030518-1.2029419-1.6040039-1.8049927c-8.019043-8.8209839-19.6480713-14.43396-32.6790771-14.43396
		h-50.5229492c-7.0159912,0-12.8309937-5.8150024-12.8309937-12.8309937v-0.8030396
		c0-7.0169678,5.8150024-12.8309937,12.8309937-12.8309937h92.6479492l0.0500488-25.2609863h-92.697998
		c-20.8499756,0-37.690979,17.0419922-37.690979,37.8919678v0.802002c0,8.0200195,2.4060059,15.4380493,6.6159668,21.4520264
		c1.4030151,2.2059937,3.0079956,4.2109985,4.8120117,6.0139771c6.815979,6.6170044,16.0390015,10.6260376,26.2630005,10.6260376
		h50.5229492c10.6259766,0,19.4470215,8.6209717,19.4470215,19.2470093c0,10.625-8.8210449,19.2459717-19.4470215,19.2459717
		h-83.8209229l-0.0160522,25.0609741h83.8369751c24.4589844,0,44.3070068-19.8479614,44.3070068-44.3069458
		C1083.7592773,750.7643433,1079.9503174,740.9403687,1073.7353516,733.3223267"/>
	<path style="clip-path:url(#SVGID_2_);fill:#6D6C2B;" d="M580.8856812,668.8360596l-21.5880127,21.5870361
		c24.7709961,0.1069946,44.914978,20.3099976,44.914978,45.1040039c0,24.8609619-20.2490234,45.1099854-45.1099854,45.1099854
		c-24.8599854,0-45.1090088-20.2490234-45.1090088-45.1099854c0-24.8590088,20.2490234-45.1080322,45.1090088-45.1080322
		v-25.0619507c-38.6929932,0-70.1699829,31.4769897-70.1699829,70.1699829
		c0,38.6950073,31.4769897,70.1699829,70.1699829,70.1699829c38.6939697,0,70.1699829-31.4749756,70.1699829-70.1699829
		C629.272644,704.4381104,608.9436646,678.0230713,580.8856812,668.8360596"/>
	<polygon style="clip-path:url(#SVGID_2_);fill:#8FB73E;" points="757.7714844,917.4609375 738.6364746,917.4609375 
		729.8904419,900.3769531 708.9794312,859.3759766 688.069458,900.3769531 679.3224487,917.4609375 660.187439,917.4609375 
		668.9344482,900.3769531 708.9794312,821.7909546 749.0244751,900.3769531 	"/>
	<path style="clip-path:url(#SVGID_2_);fill:#8FB73E;" d="M653.2440796,868.4404297
		c-0.4130249-0.4119873-0.6880493-0.8249512-1.1020508-1.2379761c-5.5029907-6.0549927-13.4849854-9.90802-22.4289551-9.90802
		h-34.6780396c-4.8439941,0-8.8070068-3.9629517-8.8070068-8.8069458v-0.5510254
		c0-4.8439941,3.9630127-8.8070068,8.8070068-8.8070068h63.5910034l0.0350342-17.3380127h-63.6260376
		c-14.2879639,0-25.8709717,11.5830078-25.8709717,25.8710327v0.6870117c0,5.5049438,1.6519775,10.5969849,4.5410156,14.7249756
		c0.9639893,1.5130005,2.0650024,2.8889771,3.3029785,4.1279907c4.6790161,4.5410156,11.0089722,7.2940063,18.0269775,7.2940063
		h34.4830322c6.8869629,0,12.8590088,5.1359863,13.4869995,11.9949951
		c0.7179565,7.8400269-5.5980225,14.4260254-13.2919922,14.4260254l-247.9179993-0.3290405
		c-17.0619812,0-30.8939819-13.8319702-30.8939819-30.8930054c0-17.0619507,13.8320007-30.8939819,30.8939819-30.8939819
		l180.3840027,0.3280029v-17.3380127l-180.4530029-0.3289795c-26.6000061,0-48.1629944,21.5640259-48.1629944,48.1640015
		c0,26.598999,21.5629883,48.1629639,48.1629944,48.1629639l247.5,0.3280029
		c15.7529907,0,29.2589722-11.8039551,30.7579956-27.4849854
		C660.7880249,882.2264404,658.0750732,874.3634644,653.2440796,868.4404297"/>
	<path style="clip-path:url(#SVGID_2_);fill:#8FB73E;" d="M738.9091797,821.9277344v17.0840454h39.2249756v78.5859985h17.0830078
		v-78.5859985h240.3209229c17.0570068,0,30.8830566,13.8269653,30.8830566,30.8839722
		c0,17.0549927-13.8260498,30.8829956-30.8830566,30.8829956H808.7371826v17.3380127h226.9279785
		c26.5620117,0,48.0949707-21.5319824,48.0949707-48.0939941s-21.532959-48.0950317-48.0949707-48.0950317H738.9091797z"/>
</g>
</svg>
